<?xml version="1.0" encoding="UTF-8" standalone="no"?>
<svg
   xmlns:dc="http://purl.org/dc/elements/1.1/"
   xmlns:cc="http://creativecommons.org/ns#"
   xmlns:rdf="http://www.w3.org/1999/02/22-rdf-syntax-ns#"
   xmlns:svg="http://www.w3.org/2000/svg"
   xmlns="http://www.w3.org/2000/svg"
   xmlns:sodipodi="http://sodipodi.sourceforge.net/DTD/sodipodi-0.dtd"
   xmlns:inkscape="http://www.inkscape.org/namespaces/inkscape"
   id="e964fae6-99d5-4ba3-9654-9b5776c78265"
   data-name="Layer 1"
   width="1002.69775"
   height="700.07656"
   viewBox="0 0 1002.69775 700.07656"
   version="1.1"
   sodipodi:docname="head-x-2.svg"
   inkscape:version="1.0.2 (394de47547, 2021-03-26)">
  <metadata
     id="metadata77">
    <rdf:RDF>
      <cc:Work
         rdf:about="">
        <dc:format>image/svg+xml</dc:format>
        <dc:type
           rdf:resource="http://purl.org/dc/dcmitype/StillImage" />
      </cc:Work>
    </rdf:RDF>
  </metadata>
  <defs
     id="defs75" />
  <sodipodi:namedview
     pagecolor="#ffffff"
     bordercolor="#666666"
     borderopacity="1"
     objecttolerance="10"
     gridtolerance="10"
     guidetolerance="10"
     inkscape:pageopacity="0"
     inkscape:pageshadow="2"
     inkscape:window-width="1920"
     inkscape:window-height="1016"
     id="namedview73"
     showgrid="false"
     inkscape:zoom="1.0201761"
     inkscape:cx="541.25975"
     inkscape:cy="535.09897"
     inkscape:window-x="0"
     inkscape:window-y="27"
     inkscape:window-maximized="1"
     inkscape:current-layer="e964fae6-99d5-4ba3-9654-9b5776c78265"
     inkscape:document-rotation="0" />
  <title
     id="title2">design_data</title>
  <polygon
     points="764.698 281.17 481.698 281.17 481.698 26.17 483.698 26.17 483.698 279.17 764.698 279.17 764.698 281.17"
     fill="#3f3d56"
     id="polygon6"
     style="fill:#ffffff;fill-opacity:0.30000001" />
  <path
     d="M584.43579,381.42112l-1.78906-.89453c12.30078-24.61181,37.958-42.07031,65.36621-44.47656,4.72852-.41553,9.68262-.45654,14.47363-.49609,13.24024-.10987,26.93067-.22315,36.91309-8.31934,7.38965-5.99268,10.96191-14.80713,14.74414-24.13916a119.55826,119.55826,0,0,1,6.48437-14.18994,58.17306,58.17306,0,0,1,46.1211-28.6582c.73047-.04249,1.47558-.06836,2.23144-.07666a54.781,54.781,0,0,1,5.29688-6.08643c9.6914-9.58447,22.10058-15.86719,34.10156-21.94287l2.84082-1.44043c12.69922-6.46143,25.85059-13.7085,34.83106-24.93555a55.14771,55.14771,0,0,0,8.82031-51.50879l1.88867-.6582a57.19247,57.19247,0,0,1-9.14648,53.416c-9.23047,11.53857-22.5918,18.90869-35.48731,25.46875l-2.84375,1.44238c-11.86328,6.00635-24.13086,12.21679-33.59863,21.58056a52.813,52.813,0,0,0-4.208,4.69971c11.30176.44434,24.44922,4.80615,31.83691,16.10645a28.05272,28.05272,0,0,1,3.28223,22.41015c-1.78223,6.55908-5.75195,11.65625-11.17871,14.353-5.72949,2.84717-12.501,2.76465-19.06738-.2334A28.939,28.939,0,0,1,760.471,294.41673c-3.02344-11.68848.958-23.2544,7.05176-32.20606q-.32812.01392-.65821.0337a56.12623,56.12623,0,0,0-44.498,27.64941,118.04957,118.04957,0,0,0-6.36817,13.95312c-3.71191,9.15625-7.54883,18.624-15.33887,24.94141-10.52539,8.53662-24.57226,8.65283-38.15625,8.76563-4.75195.03955-9.666.08007-14.31445.48828C621.4563,340.38939,596.43286,357.41673,584.43579,381.42112ZM769.99243,262.16624c-6.27246,8.69336-10.57617,20.18848-7.58594,31.74951a26.90008,26.90008,0,0,0,14.77344,17.10694c6.00684,2.7417,12.168,2.835,17.3457.26171,4.90821-2.439,8.50879-7.08642,10.13965-13.08642a26.38691,26.38691,0,0,0-3.02636-20.791C795.53735,268.074,783.344,262.27659,769.99243,262.16624Z"
     fill="#3f3d56"
     id="path8"
     style="fill:#ffffff;fill-opacity:0.30000001"
     transform="translate(-98.65112 -99.96172)" />
  <circle
     cx="620.69775"
     cy="193.17034"
     r="18"
     fill="#6c63ff"
     id="circle10"
     style="fill:#16d90c;fill-opacity:1" />
  <rect
     x="322.69775"
     y="675.17034"
     width="665"
     height="2"
     fill="#3f3d56"
     id="rect14"
     style="fill:#ffffff;fill-opacity:0.30000001" />
  <path
     d="M931,332.46l-8.22373,41.1187s-10.57338,23.49639-5.8741,39.94387l3.52446,7.04892,22.32157-19.97194,8.22374-55.21653Z"
     transform="translate(-98.65112 -99.96172)"
     fill="#a0616a"
     id="path16" />
  <polygon
     points="786.531 613.14 773.608 662.482 788.881 669.531 802.978 657.783 811.202 620.189 786.531 613.14"
     fill="#a0616a"
     id="polygon18" />
  <polygon
     points="959.817 593.755 966.278 664.832 999.173 664.832 983.313 586.706 959.817 593.755"
     fill="#a0616a"
     id="polygon20" />
  <path
     d="M1007.36329,432.31968l6.65577-32.54141-77.145-17.97585-16.44747,25.846S892.231,452.29161,885.182,588.57071,875.78347,723.675,875.78347,723.675l57.56617,5.8741,29.3705-190.32081L1035.559,713.10161,1090.7755,697.829,1021.46113,488.711S1026.16041,458.16571,1007.36329,432.31968Z"
     transform="translate(-98.65112 -99.96172)"
     fill="#2f2e41"
     id="path22"
     style="fill:#747700;fill-opacity:1" />
  <path
     d="M888.70649,751.87067l-8.22374,8.22373-4.69928-4.69927,2.56541-17.26307-13.13879,7.86451s-23.49639-3.52446-21.14675,21.14675c0,0-3.52446,8.22374,16.44748,17.6223s30.54531,15.27266,30.54531,15.27266,18.79712-1.17482,18.79712-7.04892-5.92335-45.76067-5.92335-45.76067Z"
     transform="translate(-98.65112 -99.96172)"
     fill="#2f2e41"
     id="path24"
     style="fill:#6c0200;fill-opacity:1" />
  <path
     d="M1080.20212,751.87067l-8.22374,8.22373-4.69928-4.69927-4.93022-17.26307-5.64316,7.86451s-23.49639-3.52446-21.14675,21.14675c0,0-3.52446,8.22374,16.44747,17.6223s30.54532,15.27266,30.54532,15.27266,18.79712-1.17482,18.79712-7.04892-5.92335-45.76067-5.92335-45.76067Z"
     transform="translate(-98.65112 -99.96172)"
     fill="#2f2e41"
     id="path26"
     style="fill:#6c0200;fill-opacity:1" />
  <circle
     cx="888.74023"
     cy="130.28895"
     r="34.06977"
     fill="#a0616a"
     id="circle28" />
  <polygon
     points="878.167 156.135 880.516 196.079 925.16 196.079 912.237 142.037 878.167 156.135"
     fill="#a0616a"
     id="polygon30" />
  <path
     d="M950.97194,279.5931l36.41942-2.34964,38.769,2.34964s32.895,17.6223,15.27266,65.78991-30.54532,63.44027-30.54532,63.44027L973.29352,392.3758h-11.7482s-3.52446-3.52446-4.69928-3.52446-23.4964,3.52446-23.4964,3.52446-5.8741-24.67121,2.34964-27.02085,12.923-15.27266,12.923-15.27266Z"
     transform="translate(-98.65112 -99.96172)"
     fill="#d0cde1"
     id="path32"
     style="fill:#636363;fill-opacity:1" />
  <polygon
     points="859.37 183.156 852.321 179.631 827.65 237.198 854.67 254.82 859.37 183.156"
     fill="#d0cde1"
     id="polygon34" />
  <path
     d="M938.63633,227.31362s-16.44747-42.29351,16.06742-46.34061c0,0,40.99641-25.18314,67.34479,16.97011l20.79395,51.32744-6.947-1.38084-.88176,6.91568-8.86417,5.438-6.66707-6.89016,1.10275,10.54778-76.37657,32.436s28.795-31.88692,17.68741-69.48181l-4.50911,9.20318Z"
     transform="translate(-98.65112 -99.96172)"
     fill="#2f2e41"
     id="path36"
     style="fill:#723c14;fill-opacity:1" />
  <circle
     cx="759.69775"
     cy="59.17034"
     r="18"
     fill="#6c63ff"
     id="circle52"
     style="fill:#d9100c;fill-opacity:1" />
  <circle
     cx="710.69775"
     cy="133.17034"
     r="18"
     fill="#6c63ff"
     id="circle54"
     style="fill:#5eb3f3;fill-opacity:1" />
  <rect
     x="34.866402"
     y="421.54922"
     width="313.39676"
     height="145.35548"
     fill="#f2f2f2"
     id="rect56"
     style="fill:#f2f2f2;fill-opacity:0.231686;stroke-width:0.975891" />
  <rect
     x="34.985069"
     y="411.78134"
     width="313.32349"
     height="27.80089"
     fill="#6c63ff"
     id="rect58"
     style="fill:#9b0000;fill-opacity:1" />
  <rect
     x="54.896523"
     y="421.92493"
     width="273.50061"
     height="7.5137501"
     fill="#3f3d56"
     id="rect60"
     style="fill:#ffffff;fill-opacity:1" />
  <circle
     cx="191.27115"
     cy="425.30609"
     r="10.51925"
     fill="#3f3d56"
     id="circle62"
     style="fill:#ffffff;fill-opacity:1" />
  <rect
     x="109.37123"
     y="461.3721"
     width="163.79982"
     height="78.143028"
     fill="#6c63ff"
     id="rect64"
     style="fill:#acac81;fill-opacity:0.42629945" />
  <circle
     cx="191.27115"
     cy="500.44363"
     r="15.02751"
     opacity="0.15"
     id="circle66" />
  <circle
     cx="243.86742"
     cy="500.44363"
     r="15.02751"
     fill="#ffffff"
     opacity="0.3"
     id="circle68" />
  <circle
     cx="138.67487"
     cy="500.44363"
     r="15.02751"
     opacity="0.3"
     id="circle70" />
  <path
     id="path2"
     style="stroke-width:0.720364;fill:#d9d9d9;fill-opacity:0.47293526"
     d="M 5.7441406 14.726562 L 5.7441406 250.90039 A 5.1835417 5.1609152 0 0 0 10.921875 256.05469 L 393.9082 256.05469 A 5.1835417 5.1609152 0 0 0 399.08594 250.90039 L 399.08594 14.726562 L 5.7441406 14.726562 z M 22.152344 36.376953 L 382.67773 36.376953 A 5.2398531 5.2169808 0 0 1 387.91211 41.587891 L 387.91211 236.08398 A 5.239651 5.2167796 0 0 1 382.67773 241.29492 L 22.152344 241.29492 A 5.2398531 5.2169808 0 0 1 16.917969 236.08398 L 16.917969 41.587891 A 5.2401058 5.2172324 0 0 1 22.152344 36.376953 z " />
  <path
     d="M 399.0578,21.96713 H 5.5764601 V 9.9407797 A 5.1853846,5.1451773 0 0 1 10.756067,4.801335 H 393.87821 a 5.1853846,5.1451773 0 0 1 5.1796,5.1394447 z"
     fill="#6c63ff"
     id="path6"
     style="fill:#9b0000;fill-opacity:1;stroke-width:0.719393" />
  <circle
     cx="30.017691"
     cy="13.597372"
     fill="#ffffff"
     id="circle10-3"
     rx="3.0923798"
     ry="3.0788813"
     style="stroke-width:0.720364" />
  <circle
     cx="41.7556"
     cy="13.597372"
     fill="#ffffff"
     id="circle12"
     rx="3.0923798"
     ry="3.0788813"
     style="stroke-width:0.720364" />
  <rect
     x="53.971493"
     y="71.252815"
     width="37.157986"
     height="16.375189"
     fill="#e6e6e6"
     id="rect14-6"
     style="stroke-width:0.720364" />
  <rect
     x="128.28746"
     y="105.21618"
     width="37.157986"
     height="16.375189"
     fill="#e6e6e6"
     id="rect16"
     style="stroke-width:0.720364" />
  <rect
     x="53.971493"
     y="156.16119"
     width="37.157986"
     height="16.375196"
     fill="#6c63ff"
     id="rect18"
     style="fill:#63f6ff;fill-opacity:1;stroke-width:0.720364" />
  <rect
     x="128.28746"
     y="190.12453"
     width="37.157986"
     height="16.375189"
     fill="#6c63ff"
     id="rect20"
     style="stroke-width:0.720364" />
  <rect
     x="313.46826"
     y="207.10622"
     width="37.157986"
     height="16.375189"
     fill="#6c63ff"
     id="rect22"
     style="fill:#fff363;fill-opacity:1;stroke-width:0.720364" />
  <rect
     x="276.3103"
     y="139.17952"
     width="37.157986"
     height="16.375189"
     fill="#e6e6e6"
     id="rect24"
     style="stroke-width:0.720364" />
  <rect
     x="165.44548"
     y="139.17952"
     width="74.315987"
     height="16.375189"
     fill="#6c63ff"
     id="rect26"
     style="fill:#63ff8b;fill-opacity:1;stroke-width:0.720364" />
  <rect
     x="165.44548"
     y="53.664646"
     width="74.315987"
     height="16.375189"
     fill="#6c63ff"
     id="rect28"
     style="fill:#ff63fb;fill-opacity:1;stroke-width:0.720364" />
  <path
     d="M 16.813483,36.076488 V 241.67605 H 388.39342 V 36.076474 Z M 387.17511,53.108802 H 351.35737 V 37.28949 h 35.81775 z M 166.17657,172.33411 v -15.81904 h 72.85375 v 15.81904 z m 72.85379,1.21298 v 15.81934 h -72.85383 v -15.81934 z m 0,-68.12867 v 15.81904 h -72.85383 v -15.81904 z m -72.85379,-1.21298 V 88.386101 h 72.85375 v 15.819339 z m 0,34.06434 v -15.81934 h 72.85375 v 15.81934 z m 72.85379,1.21297 v 15.81934 h -72.85383 v -15.81934 z m -74.07209,-18.24529 h -35.81774 v -15.81904 h 35.81774 z m 0,1.21298 v 15.81934 h -35.81774 v -15.81934 z m 0,17.03231 v 15.81934 h -35.81774 v -15.81934 z m 0,17.03232 v 15.81904 h -35.81774 v -15.81904 z m 75.29038,0 h 35.81772 v 15.81904 h -35.81769 z m 0,-1.21298 v -15.81934 h 35.81772 v 15.81934 z m 0,-17.03231 v -15.81934 h 35.81772 v 15.81934 z m 0,-17.03232 v -15.81904 h 35.81772 v 15.81904 z m 0,-17.03202 V 88.386101 h 35.81772 v 15.819339 z m 0,-17.032312 V 71.353787 h 35.81772 v 15.819341 z m -1.21829,0 H 166.17653 V 71.353787 h 72.85379 z m -74.07209,0 H 129.14053 V 71.353787 h 35.81774 z m 0,1.212973 V 104.20544 H 129.14053 V 88.386101 Z M 127.92223,104.20544 H 92.103846 V 88.386101 h 35.818344 z m 0,1.21298 v 15.81904 H 92.103846 v -15.81904 z m 0,17.03202 v 15.81934 H 92.103846 v -15.81934 z m 0,17.03231 v 15.81934 H 92.103846 v -15.81934 z m 0,17.03232 v 15.81904 H 92.103846 v -15.81904 z m 0,17.03202 v 15.81934 H 92.103846 v -15.81934 z m 1.2183,0 h 35.81774 v 15.81934 h -35.81774 z m 35.81774,17.03232 v 15.81903 h -35.81774 v -15.81903 z m 1.2183,0 h 72.85375 v 15.81903 h -72.85379 z m 74.07208,0 h 35.81772 v 15.81903 h -35.81769 z m 0,-1.21298 v -15.81934 h 35.81772 v 15.81934 z m 37.03604,-15.81934 h 35.81835 v 15.81934 h -35.81842 z m 0,-1.21298 v -15.81904 h 35.81835 v 15.81904 z m 0,-17.03202 v -15.81934 h 35.81835 v 15.81934 z m 0,-17.03231 v -15.81934 h 35.81835 v 15.81934 z m 0,-17.03232 v -15.81904 h 35.81835 v 15.81904 z m 0,-17.03202 V 88.386101 h 35.81835 v 15.819339 z m 0,-17.032312 V 71.353787 h 35.81835 v 15.819341 z m 0,-17.032314 V 54.321768 h 35.81835 v 15.819046 z m -1.21829,0 H 240.24868 V 54.321768 h 35.81769 z m -37.03604,0 H 166.17653 V 54.321768 h 72.85379 z m -74.07209,0 H 129.14053 V 54.321768 h 35.81774 z m -37.03604,0 H 92.103846 V 54.321768 h 35.818344 z m 0,1.212973 V 87.173128 H 92.103846 V 71.353787 Z M 90.885591,87.173128 H 55.067845 V 71.353787 h 35.817746 z m 0,1.212973 V 104.20544 H 55.067845 V 88.386101 Z m 0,17.032319 v 15.81904 H 55.067845 v -15.81904 z m 0,17.03202 v 15.81934 H 55.067845 v -15.81934 z m 0,17.03231 v 15.81934 H 55.067845 v -15.81934 z m 0,17.03232 v 15.81904 H 55.067845 v -15.81904 z m 0,17.03202 v 15.81934 H 55.067845 v -15.81934 z m 0,17.03232 v 15.81903 H 55.067845 v -15.81903 z m 1.218292,0 h 35.818347 v 15.81903 H 92.103846 Z m 35.818347,17.03201 v 15.81963 H 92.103846 v -15.81963 z m 1.2183,0 h 35.81774 v 15.81963 h -35.81774 z m 37.03604,0 h 72.85375 v 15.81963 h -72.85379 z m 74.07208,0 h 35.81772 v 15.81963 h -35.81769 z m 37.03604,0 h 35.81835 v 15.81963 h -35.81842 z m 0,-1.21298 v -15.81903 h 35.81835 v 15.81903 z m 37.03665,-15.81903 h 35.81776 v 15.81903 h -35.81776 z m 0,-1.21298 v -15.81934 h 35.81776 v 15.81934 z m 0,-17.03232 v -15.81904 h 35.81776 v 15.81904 z m 0,-17.03202 v -15.81934 h 35.81776 v 15.81934 z m 0,-17.03231 v -15.81934 h 35.81776 v 15.81934 z m 0,-17.03232 v -15.81904 h 35.81776 v 15.81904 z m 0,-17.03202 V 88.386101 h 35.81776 v 15.819339 z m 0,-17.032312 V 71.353787 h 35.81776 v 15.819341 z m 0,-17.032314 V 54.321768 h 35.81776 v 15.819046 z m 0,-17.032019 V 37.28949 h 35.81776 v 15.819341 z m -1.21829,0 H 277.28463 V 37.28949 h 35.81835 z m -37.03664,0 H 240.24868 V 37.28949 h 35.81769 z m -37.03604,0 H 166.17653 V 37.28949 h 72.85379 z m -74.07208,0 H 129.14053 V 37.28949 h 35.81774 z m -37.03605,0 H 92.103846 V 37.28949 h 35.818344 z m -37.036634,0 H 55.067845 V 37.28949 h 35.817746 z m 0,1.212973 V 70.140814 H 55.067845 V 54.321768 Z M 53.849562,70.140814 H 18.031803 V 54.321768 h 35.817744 z m 0,1.212973 V 87.173128 H 18.031803 V 71.353787 Z m 0,17.032314 V 104.20544 H 18.031803 V 88.386101 Z m 0,17.032319 v 15.81904 H 18.031803 v -15.81904 z m 0,17.03202 v 15.81934 H 18.031803 v -15.81934 z m 0,17.03231 v 15.81934 H 18.031803 v -15.81934 z m 0,17.03232 v 15.81904 H 18.031803 v -15.81904 z m 0,17.03202 v 15.81934 H 18.031803 v -15.81934 z m 0,17.03232 v 15.81903 H 18.031803 v -15.81903 z m 0,17.03201 v 15.81963 H 18.031803 v -15.81963 z m 1.218298,0 h 35.817746 v 15.81963 H 55.067845 Z m 35.817746,17.03261 v 15.81905 H 55.067845 v -15.81905 z m 1.218291,0 h 35.818343 v 15.81905 H 92.103846 Z m 37.036643,0 h 35.81775 v 15.81905 h -35.81776 z m 37.03604,0 h 72.85374 v 15.81905 h -72.85379 z m 74.07209,0 h 35.8177 v 15.81905 h -35.81769 z m 37.03604,0 h 35.81834 v 15.81905 h -35.81842 z m 37.03663,0 h 35.81776 v 15.81905 h -35.81776 z m 0,-1.21297 v -15.81964 h 35.81776 v 15.81963 z m 37.03605,-15.81964 h 35.81774 v 15.81963 h -35.81776 z m 0,-1.21298 v -15.81903 h 35.81774 v 15.81903 z m 0,-17.03201 v -15.81934 h 35.81774 v 15.81934 z m 0,-17.03232 v -15.81904 h 35.81774 v 15.81904 z m 0,-17.03202 v -15.81934 h 35.81774 v 15.81934 z m 0,-17.03231 v -15.81934 h 35.81774 v 15.81934 z m 0,-17.03232 v -15.81904 h 35.81774 v 15.81904 z m 0,-17.03202 V 88.386101 h 35.81774 v 15.819339 z m 0,-17.032312 V 71.353787 h 35.81774 v 15.819341 z m 0,-17.032314 V 54.321768 h 35.81774 V 70.140814 Z M 53.849547,37.28949 V 53.108831 H 18.031803 V 37.28949 Z M 18.031803,224.64403 h 35.817744 v 15.81905 H 18.031803 Z m 333.325557,15.81905 v -15.81905 h 35.81774 v 15.81905 z"
     fill="#e6e6e6"
     id="path30"
     style="stroke-width:0.720364;fill:#e6e6e6;fill-opacity:0.42571148" />
  <circle
     cx="18.279781"
     cy="13.597372"
     fill="#ffffff"
     id="circle8"
     rx="3.0923798"
     ry="3.0788813"
     style="stroke-width:0.720364;fill:#ffffff;fill-opacity:1" />
  <circle
     cx="41.7556"
     cy="13.597372"
     fill="#ffffff"
     id="circle12-7"
     style="stroke-width:0.720364"
     r="0" />
  <circle
     cx="41.7556"
     cy="13.597372"
     fill="#ffffff"
     id="circle993"
     rx="3.0923798"
     ry="3.0788813"
     style="stroke-width:0.720364" />
  <circle
     cx="41.783146"
     cy="13.598771"
     fill="#6c63ff"
     id="circle10-35"
     style="fill:#ffffff;fill-opacity:1;stroke-width:0.171913"
     r="3.0944276" />
  <circle
     cx="30.004293"
     cy="13.590148"
     fill="#6c63ff"
     id="circle10-35-6"
     style="fill:#ffffff;fill-opacity:1;stroke-width:0.171913"
     r="3.0944276" />
  <circle
     cx="18.290703"
     cy="13.591538"
     fill="#6c63ff"
     id="circle10-35-2"
     style="fill:#ffffff;fill-opacity:1;stroke-width:0.171913"
     r="3.0944276" />
  <path
     d="M1007.36329,432.31968l6.65577-32.54141-77.145-17.97585-16.44747,25.846S892.231,452.29161,885.182,588.57071,875.78347,723.675,875.78347,723.675l57.56617,5.8741,29.3705-190.32081L1035.559,713.10161,1090.7755,697.829,1021.46113,488.711S1026.16041,458.16571,1007.36329,432.31968Z"
     transform="translate(-98.65112 -99.96172)"
     fill="#2f2e41"
     id="path881"
     style="fill:#ffffff;fill-opacity:1" />
</svg>
